<svg xmlns="http://www.w3.org/2000/svg" style="display: none;">
  
    <symbol id="icon-sheep" viewBox="0 0 512 512">
      <path d="m106 181c10 1 21-3 33-13 10-8 21-22 31-39 10-17 18-34 22-46l3-7 8-1c17-3 35-14 43-19 2-1 4-3 6-4 2-2 4-5 3-8 0-2-2-5-4-6-7-3-15-5-22-7-11-1-20 0-26 4l-10 5-7-8c-10-11-25-19-42-23-3-1-7-2-10-3-29-4-48 1-59 7l-8 3-8-6c-5-4-12-8-22-9-8-1-17-1-23 0-2 0-5 2-6 4-1 3-1 6 1 8 1 2 2 3 4 5 4 5 18 22 33 31l8 5 1 7c1 12 3 29 6 48 5 20 10 37 17 49 8 12 16 20 25 22 1 0 2 1 3 1z m398 66c-3-14-21-27-37-35-4-22-20-40-43-46-3-1-6-2-9-2l-6 0-4-5c-8-11-19-19-33-23-8-2-16-2-24-1l-6 1-5-4c-6-5-14-8-22-11-12-3-25-2-37 3l-7 3-6-5c-6-4-13-8-21-9-9-3-20-3-30 0l-2 0c-2 1-4 3-5 5-4 8-9 17-14 25-11 20-24 36-37 46-17 16-36 22-55 19l0 0c-3-1-5 0-7 2-2 2-3 5-2 8 3 9 7 17 14 24l6 6-3 8c0 0 0 1-1 2-4 17 1 35 12 49l-21 80c-2 8 3 17 12 19 8 2 17-3 19-12l16-63c5 12 13 22 23 28l-20 79c-2 8 3 17 11 19 9 2 18-3 20-11l20-77c3 0 7 0 11-1l7-1 5 5c8 10 19 16 30 19 10 3 20 3 30 0l7-2 6 5c7 7 15 12 24 14l-9 33c-2 9 3 18 11 20 9 2 18-3 20-12l10-40c5-2 10-4 15-7l4-3 6 2c1 0 3 0 4 1l-23 90c-2 8 3 17 11 19 9 2 17-3 19-11l27-102c15-7 26-19 31-36 2-9 2-19-1-28l-2-8 6-5c6-7 11-16 14-25 3-12 2-25-4-36l-3-7 1-2c10 13 21 26 32 24 3-1 7-4 10-8 5-6 7-13 5-20z"/>
    </symbol>
  
    <symbol id="icon-milk" viewBox="0 0 512 512">
      <path d="m253 506c-49 0-98 0-147 0-34-14-45-40-45-75 2-78 5-157 0-236-2-49 14-90 38-129 3-6 8-10 10-16 1-4 2-11 1-15-6-14-4-25 8-35 42 0 85 0 127 0 3 8 11 19 8 24-10 19 1 31 10 44 24 38 39 78 36 126-3 79-2 159-1 239 1 36-11 61-45 73z m23-369c1-1 2-2 3-3-15-27-31-54-47-79-4-6-13-10-21-10-21-2-42-2-63 0-4-2-13 0-16 3-18 30-35 60-54 91 38 17 71 21 103 0 20-13 43-14 65-9 10 2 20 5 30 7z m175 177c-5 63-10 125-15 187-40 0-76 0-117 0-4-62-8-124-14-187 49 0 96 0 146 0z m-134 9c-1 44 8 53 49 47 22-4 45-7 69-10 1-9 1-23 2-36-40-1-79-1-120-1z"/>
    </symbol>
  
</svg>
